<svg xmlns="http://www.w3.org/2000/svg" xmlns:xlink="http://www.w3.org/1999/xlink" width="135" height="135" viewBox="0 0 135 135">
  <defs>
    <clipPath id="clip-L-ghost">
      <rect width="135" height="135"/>
    </clipPath>
  </defs>
  <g id="L-ghost" clip-path="url(#clip-L-ghost)">
    <g id="Ausschluss_5" data-name="Ausschluss 5" transform="translate(135 90.001) rotate(180)" fill="none">
      <path d="M135,0H0V45H0V90H45V45h90V0Z" stroke="none"/>
      <path d="M 5 5.000923156738281 L 5 45.0009651184082 L 5.000015258789063 85.00096893310547 L 40 85.00096893310547 L 40 45.0009651184082 L 40 40.0009651184082 L 45 40.0009651184082 L 130 40.0009651184082 L 130 5.000923156738281 L 5 5.000923156738281 M 135 -1.52587890625e-05 L 135 0.00092315673828125 L 135 -1.52587890625e-05 Z M 0 0.00092315673828125 L 135 0.00092315673828125 L 135 0.00096893310546875 L 135 45.0009651184082 L 45 45.0009651184082 L 45 90.00096893310547 L 1.52587890625e-05 90.00096893310547 L 0 45.0009651184082 L 1.52587890625e-05 45.0009651184082 L 0 0.00092315673828125 Z" stroke="none" fill="#ef6c00"/>
    </g>
  </g>
</svg>
