<svg xmlns="http://www.w3.org/2000/svg" xmlns:xlink="http://www.w3.org/1999/xlink" width="135" height="135" viewBox="0 0 135 135">
  <defs>
    <clipPath id="clip-S-ghost">
      <rect width="135" height="135"/>
    </clipPath>
  </defs>
  <g id="S-ghost" clip-path="url(#clip-S-ghost)">
    <g id="Ausschluss_1" data-name="Ausschluss 1" transform="translate(428 642)" fill="none">
      <path d="M-338-552h-90v-45h45v-45h90v45h-45v45Z" stroke="none"/>
      <path d="M -343.0003967285156 -556.9996337890625 L -343.0003967285156 -596.9996948242188 L -343.0003967285156 -601.9996948242188 L -338.0003967285156 -601.9996948242188 L -298.0003967285156 -601.9996948242188 L -298.0003967285156 -636.9996948242188 L -378.0003967285156 -636.9996948242188 L -378.0003967285156 -596.9996948242188 L -378.0003967285156 -591.9996948242188 L -383.0003967285156 -591.9996948242188 L -423.0003662109375 -591.9996948242188 L -423.0003967285156 -556.9996337890625 L -343.0003967285156 -556.9996337890625 M -338.0003967285156 -551.9987182617188 L -338.0003967285156 -551.9996337890625 L -428.0003967285156 -551.9996337890625 L -428.0003662109375 -596.9996948242188 L -383.0003967285156 -596.9996948242188 L -383.0003967285156 -641.9996948242188 L -293.0003967285156 -641.9996948242188 L -293.0003967285156 -596.9996948242188 L -338.0003967285156 -596.9996948242188 L -338.0003967285156 -551.9996948242188 L -338.0003967285156 -551.9987182617188 Z M -293.0003967285156 -596.9987182617188 L -293.0003967285156 -596.9996948242188 L -293.0003967285156 -596.9987182617188 Z" stroke="none" fill="#00d52b"/>
    </g>
  </g>
</svg>
