<svg xmlns="http://www.w3.org/2000/svg" xmlns:xlink="http://www.w3.org/1999/xlink" width="135" height="135" viewBox="0 0 135 135">
  <defs>
    <clipPath id="clip-T-ghost">
      <rect width="135" height="135"/>
    </clipPath>
  </defs>
  <g id="T-ghost" clip-path="url(#clip-T-ghost)">
    <g id="Ausschluss_2" data-name="Ausschluss 2" transform="translate(8 762)" fill="none">
      <path d="M127-672H-8v-45H37v-45H82v45h45v45Z" stroke="none"/>
      <path d="M 121.9999008178711 -677.000244140625 L 121.9999008178711 -712.0003051757813 L 81.99990081787109 -712.0003051757813 L 76.99990081787109 -712.0003051757813 L 76.99990081787109 -717.0003051757813 L 76.99990081787109 -757.0003051757813 L 41.99990081787109 -757.0003051757813 L 41.99990081787109 -717.0003051757813 L 41.99990081787109 -712.0003051757813 L 36.99990081787109 -712.0003051757813 L -3.000099182128906 -712.0003051757813 L -3.000099182128906 -677.000244140625 L 121.9999008178711 -677.000244140625 M 126.9999008178711 -671.9993286132813 L 126.9999008178711 -672.000244140625 L -8.000099182128906 -672.000244140625 L -8.000099182128906 -717.0003051757813 L 36.99990081787109 -717.0003051757813 L 36.99990081787109 -762.0003051757813 L 81.99990081787109 -762.0003051757813 L 81.99990081787109 -717.0003051757813 L 126.9999008178711 -717.0003051757813 L 126.9999008178711 -672.0003051757813 L 126.9999008178711 -671.9993286132813 Z" stroke="none" fill="#80f"/>
    </g>
  </g>
</svg>
