<svg xmlns="http://www.w3.org/2000/svg" xmlns:xlink="http://www.w3.org/1999/xlink" width="135" height="135" viewBox="0 0 135 135">
  <defs>
    <clipPath id="clip-Z-ghost">
      <rect width="135" height="135"/>
    </clipPath>
  </defs>
  <g id="Z-ghost" clip-path="url(#clip-Z-ghost)">
    <g id="Ausschluss_3" data-name="Ausschluss 3" transform="translate(135 90) rotate(180)" fill="none">
      <path d="M90,0H0V45H45V90h90V45H90V0Z" stroke="none"/>
      <path d="M 5.000015258789063 5.000923156738281 L 5.000030517578125 40.0009651184082 L 45.00000762939453 40.0009651184082 L 50.00000762939453 40.0009651184082 L 50.00000762939453 45.0009651184082 L 50.00000762939453 85.00096893310547 L 129.9999694824219 85.00096893310547 L 129.9999694824219 50.0009651184082 L 90.00000762939453 50.0009651184082 L 85.00000762939453 50.0009651184082 L 85.00000762939453 45.0009651184082 L 85.00000762939453 5.000923156738281 L 5.000015258789063 5.000923156738281 M 90.00000762939453 -1.52587890625e-05 L 90.00000762939453 0.00092315673828125 L 90.00000762939453 -1.52587890625e-05 Z M 0 0.00092315673828125 L 90.00000762939453 0.00092315673828125 L 90.00000762939453 0.00096893310546875 L 90.00000762939453 45.0009651184082 L 134.9999694824219 45.0009651184082 L 134.9999694824219 45.0000114440918 L 134.9999694824219 45.0009651184082 L 134.9999694824219 90.00096893310547 L 45.00000762939453 90.00096893310547 L 45.00000762939453 45.0009651184082 L 3.0517578125e-05 45.0009651184082 L 0 0.00092315673828125 Z" stroke="none" fill="#f30000"/>
    </g>
  </g>
</svg>
